# xmcd
#
# Track frame offsets:
#	150
#	14035
#	26880
#	40161
#	54579
#	66919
#	80421
#	93833
#	106811
#	119114
#	132299
#	144465
#	158753
#	173220
#	187280
#	202023
#	215323
#	229997
#	244617
#	259850
#	272898
#	287878
#
# Disc length: 4030 seconds
#
# Revision: 1
# Processed by: cddbd v1.5.1PL0 Copyright (c) Steve Scherf et al.
# Submitted via: audiograbber 1.83.01
#
DISCID=530fbc16
DTITLE=Female Blues Singers - Complete Recorded Works - 1996 - Vol 3 - B/C  (19
DTITLE=20-1928) DOCD-5507
DYEAR=1996
DGENRE=Blues
TTITLE0=Back To Town Blues (Take 1)
TTITLE1=Down Home Moan (Take 1)
TTITLE2=Mama's In A Straom
TTITLE3=Stormy Hailing Blues
TTITLE4=Back To Town Blues (Take 2)
TTITLE5=Down Hme Moan (Take 2)
TTITLE6=Evil Blues
TTITLE7=Mean Eyes (Too Late Blues)
TTITLE8=Deceitful Blues
TTITLE9=I Don't Let No One Man Worry Me
TTITLE10=He's Never Gonna Throw Me Down
TTITLE11=Keep On Going (Kitty Brown and Le Roy Morton)
TTITLE12=Family Skeleton Blues
TTITLE13=I Wanna Jazz Some More
TTITLE14=Keep On Going (Kitty Brown and Jazz Casper)
TTITLE15=One Of These Days
TTITLE16=Take Me Away From Here
TTITLE17=Mosquito Blues
TTITLE18=Midnight Blues
TTITLE19=If You Want To Keep Your Daddy Home
TTITLE20=Bleeding Heart Blues
TTITLE21=I Just Want A Daddy
EXTD=Document Records, Austria - DOCD-5507
EXTT0=
EXTT1=
EXTT2=
EXTT3=
EXTT4=
EXTT5=
EXTT6=
EXTT7=
EXTT8=
EXTT9=
EXTT10=
EXTT11=
EXTT12=
EXTT13=
EXTT14=
EXTT15=
EXTT16=
EXTT17=
EXTT18=
EXTT19=
EXTT20=
EXTT21=
PLAYORDER=
